<svg xmlns="http://www.w3.org/2000/svg" enable-background="new 0 0 512 512" viewBox="0 0 512 512" id="npk-fertilizer">
  <path d="M261.961,292.085h-14.497v21.369h14.496c8.549,0,15.725-2.085,15.725-10.685C277.686,294.151,270.443,292.085,261.961,292.085z"></path>
  <path d="M374.824,234.054h-237.65c-9.042,0-16.394,7.351-16.394,16.34v130.882c0,8.99,7.352,16.34,16.394,16.34h237.65c9.042,0,16.394-7.351,16.394-16.34V250.394C391.218,241.404,383.867,234.054,374.824,234.054z M218.137,345.581c0,2.75-1.005,5.129-2.961,7.086c-3.793,3.593-7.667,2.799-8.356,2.909c-3.132,0-6.173-1.531-8.091-4.125l-33.897-48.915v45.109c0,4.627-3.759,7.933-8.038,7.933c-4.236,0-7.933-3.426-7.933-7.933v-61.449c0-5.172,4.147-10.1,10.048-10.1h1.322c3.226,0,6.082,1.534,8.25,4.389l33.686,48.651v-45.002c0-4.306,3.425-7.985,7.879-7.985c4.968,0.118,8.091,3.794,8.091,7.985v61.448H218.137z M262.875,328.923h-15.389v18.721c0,4.415-3.686,7.933-8.038,7.933c-4.319,0-7.933-3.349-7.933-7.933v-62.982c0-4.722,3.707-8.038,7.933-8.038h23.427c20.402,0,30.777,11.327,30.777,26.124C293.652,317.813,283.073,328.923,262.875,328.923z M360.917,353.249c-3.385,3.332-9.308,2.909-12.004-0.899l-24.168-30.777l-8.144,8.197v17.874c0,4.324-3.483,7.933-8.038,7.933c-4.027,0-7.933-3.195-7.933-7.933v-63.511c0-4.296,3.418-7.985,7.879-7.985h0.053c4.604,0,8.038,3.679,8.038,7.985v24.642l29.509-30.036c2.856-3.198,7.906-3.509,11.158-0.581c3.337,3.108,2.811,8.347,0.264,10.893l-21.681,21.576l25.435,32.099C363.653,345.709,363.943,350.117,360.917,353.249z"></path>
  <path d="M396.613,0H274.614c-19.619,0-38.128,7.72-52.036,21.628c-13.96,13.802-21.627,32.311-21.627,52.089c0,8.091-5.13,15.124-12.216,16.711c-7.826,1.798-13.008-2.379-14.966-4.336c-1.111-1.111-2.061-2.379-2.803-3.754c-2.539,0.476-5.13,0.74-7.774,0.74H88.365c-2.01,0-4.02-0.159-5.923-0.476v12.85c-25.488,16.393-41.088,44.738-41.088,75.303v267.211c0,40.825,33.209,74.034,74.034,74.034h281.225c40.825,0,74.034-33.21,74.034-74.034V74.034C470.647,33.21,437.437,0,396.613,0z M412.371,381.276c0,20.677-16.87,37.493-37.546,37.493h-237.65c-20.677,0-37.546-16.817-37.546-37.493V250.394c0-20.677,16.87-37.493,37.546-37.493h237.65c20.677,0,37.546,16.817,37.546,37.493V381.276z M428.342,154.361c0,4.125-2.433,7.879-6.187,9.625c-3.927,1.745-8.233,1.027-11.316-1.639L293.757,60.867c-3.385-2.855-4.548-7.562-3.014-11.687c1.534-4.125,5.5-6.875,9.888-6.875h95.981c17.451,0,31.729,14.225,31.729,31.729L428.342,154.361L428.342,154.361z"></path>
  <path d="M88.347,61.933h74.831c10.36,0,18.742-8.393,18.742-18.742V23.117c0-10.347-8.383-18.764-18.742-18.764H88.347c-10.347,0-18.741,8.416-18.741,18.764v20.074C69.606,53.538,78,61.933,88.347,61.933z"></path>
</svg>
