<svg xmlns="http://www.w3.org/2000/svg" viewBox="0 0 96 96" id="water">
  <g>
    <path fill="#48c5ee" d="M95,68.1c-4.7,0-4.7,1.88-9.41,1.88s-4.7-1.88-9.4-1.88S71.48,70,66.78,70s-4.7-1.88-9.4-1.88S52.68,70,48,70s-4.7-1.88-9.39-1.88S33.89,70,29.19,70s-4.7-1.88-9.4-1.88S15.1,70,10.4,70,5.7,68.1,1,68.1V41.87c4.7,0,4.7,1.88,9.4,1.88s4.7-1.88,9.39-1.88,4.7,1.88,9.4,1.88,4.7-1.88,9.4-1.88,4.69,1.88,9.39,1.88,4.7-1.88,9.4-1.88,4.7,1.88,9.4,1.88,4.7-1.88,9.4-1.88,4.7,1.88,9.4,1.88,4.71-1.88,9.41-1.88C95,63.4,95,89.75,95,68.1Z"></path>
    <path fill="#bbdefb" d="M85.58,67c-3.73,0-4.22-1.88-9.4-1.88S70.47,67,66.78,67s-4.22-1.88-9.4-1.88S51.65,67,48,67s-4.16-1.88-9.39-1.88S32.86,67,29.19,67,25,65.1,19.79,65.1,14.09,67,10.4,67C7.29,67,7,66,4,65.37v-20a15,15,0,0,0,6.4,1.38,13.79,13.79,0,0,0,5.82-1.16,8,8,0,0,1,3.57-.72c3.7,0,4.22,1.88,9.4,1.88s5.73-1.88,9.4-1.88,4.22,1.88,9.39,1.88,5.74-1.88,9.4-1.88,4.21,1.88,9.4,1.88,5.73-1.88,9.4-1.88,4.21,1.88,9.4,1.88A15.09,15.09,0,0,0,92,45.37v20C88.94,66,88.72,67,85.58,67Z"></path>
    <path fill="#349dee" d="M66.78,57.4c-4.88,0-5-1.88-9.4-1.88S52.87,57.4,48,57.4s-5-1.88-9.39-1.88a1,1,0,0,1,0-2c4.85,0,5,1.88,9.39,1.88s4.49-1.88,9.4-1.88,5,1.88,9.4,1.88,4.49-1.88,9.4-1.88a1,1,0,0,1,0,2C71.8,55.52,71.67,57.4,66.78,57.4Z"></path>
    <rect width="15.63" height="63" x="1" y="10.31" fill="#3e70ad"></rect>
    <rect width="7.81" height="63" x="8.81" y="10.31" fill="#3e9dd5"></rect>
    <path fill="#349dee" d="M95,68.1v8.07A14,14,0,0,1,81,89.81H15a14,14,0,0,1-14-14V68.1C5.7,68.1,5.7,70,10.4,70s4.7-1.88,9.39-1.88S24.49,70,29.19,70s4.7-1.88,9.4-1.88S43.28,70,48,70s4.7-1.88,9.4-1.88S62.08,70,66.78,70s4.7-1.88,9.4-1.88S80.88,70,85.58,70,90.29,68.1,95,68.1Z"></path>
    <path fill="#2f5c99" d="M16.62 49.48v2H8.81a1 1 0 010-2zM16.62 31.74v2H8.81a1 1 0 010-2zM16.62 61.31v2h-3.9a1 1 0 110-2zM16.62 55.4v2h-3.9a1 1 0 010-2zM16.62 43.57v2h-3.9a1 1 0 110-2zM16.62 37.65v2h-3.9a1 1 0 110-2zM16.62 25.82v2h-3.9a1 1 0 110-2zM16.62 19.91v2h-3.9a1 1 0 010-2zM16.62 14v2H8.81a1 1 0 010-2z"></path>
    <path fill="#48c5ee" d="M44.82,81.84c-4.87,0-5-1.88-9.4-1.88S30.9,81.84,26,81.84s-5-1.88-9.4-1.88a1,1,0,0,1,0-2c4.92,0,5,1.88,9.4,1.88S30.53,78,35.42,78s5,1.88,9.4,1.88S49.33,78,54.22,78a1,1,0,1,1,0,2C49.83,80,49.71,81.84,44.82,81.84Z"></path>
    <rect width="31.38" height="4.13" x="1" y="6.19" fill="#3e70ad"></rect>
  </g>
</svg>
